{
	"asset":{
		"generator":"Khronos glTF Blender I/O v4.3.47",
		"version":"2.0"
	},
	"scene":0,
	"scenes":[
		{
			"name":"Scene",
			"nodes":[
				0
			]
		}
	],
	"nodes":[
		{
			"mesh":0,
			"name":"KOT v6",
			"rotation":[
				0,
				-0.7071068286895752,
				0,
				0.7071068286895752
			]
		}
	],
	"materials":[
		{
			"doubleSided":true,
			"name":"aCG_Metal053B_2K_JPG",
			"normalTexture":{
				"index":0
			},
			"pbrMetallicRoughness":{
				"baseColorTexture":{
					"index":1
				},
				"metallicRoughnessTexture":{
					"index":2
				}
			}
		}
	],
	"meshes":[
		{
			"name":"KOT v6",
			"primitives":[
				{
					"attributes":{
						"POSITION":0,
						"NORMAL":1,
						"TEXCOORD_0":2
					},
					"indices":3,
					"material":0
				}
			]
		}
	],
	"textures":[
		{
			"sampler":0,
			"source":0
		},
		{
			"sampler":0,
			"source":1
		},
		{
			"sampler":0,
			"source":2
		}
	],
	"images":[
		{
			"mimeType":"image/jpeg",
			"name":"Metal053B_2K-JPG_NormalGL",
			"uri":"Metal053B_2K-JPG_NormalGL.jpg"
		},
		{
			"mimeType":"image/jpeg",
			"name":"Metal053B_2K-JPG_Color",
			"uri":"Metal053B_2K-JPG_Color.jpg"
		},
		{
			"mimeType":"image/png",
			"name":"Metal053B_2K-JPG_Metalness-Metal053B_2K-JPG_Roughness",
			"uri":"Metal053B_2K-JPG_Metalness-Metal053B_2K-JPG_Roughness.png"
		}
	],
	"accessors":[
		{
			"bufferView":0,
			"componentType":5126,
			"count":36957,
			"max":[
				3.5,
				10.22339153289795,
				3.4880459308624268
			],
			"min":[
				-3.5,
				0,
				-3.4880459308624268
			],
			"type":"VEC3"
		},
		{
			"bufferView":1,
			"componentType":5126,
			"count":36957,
			"type":"VEC3"
		},
		{
			"bufferView":2,
			"componentType":5126,
			"count":36957,
			"type":"VEC2"
		},
		{
			"bufferView":3,
			"componentType":5123,
			"count":204798,
			"type":"SCALAR"
		}
	],
	"bufferViews":[
		{
			"buffer":0,
			"byteLength":443484,
			"byteOffset":0,
			"target":34962
		},
		{
			"buffer":0,
			"byteLength":443484,
			"byteOffset":443484,
			"target":34962
		},
		{
			"buffer":0,
			"byteLength":295656,
			"byteOffset":886968,
			"target":34962
		},
		{
			"buffer":0,
			"byteLength":409596,
			"byteOffset":1182624,
			"target":34963
		}
	],
	"samplers":[
		{
			"magFilter":9729,
			"minFilter":9987
		}
	],
	"buffers":[
		{
			"byteLength":1592220,
			"uri":"nikitakot.bin"
		}
	]
}
